{"title":"Flash Gordon Conquers the Universe - Ep 11 (1940) - REPACK.ita.e","uid":11808199,"size":321165732,"categoryP":"video","categoryS":"movies","magnet":"?xt=urn:btih:3d5a49f9ae4509e22d34a483a76d00c5c0ffb996&amp;dn=Flash+Gordon+Conquers+the+Universe+-+Ep+11+%281940%29+-+REPACK.ita.e&amp;tr=udp%3A%2F%2Ftracker.openbittorrent.com%3A80&amp;tr=udp%3A%2F%2Fopen.demonii.com%3A1337&amp;tr=udp%3A%2F%2Ftracker.coppersurfer.tk%3A6969&amp;tr=udp%3A%2F%2Fexodus.desync.com%3A6969","seeders":1,"leechers":1,"uploader":"robbyrs4","files":3,"time":1428680039,"description":"Flash Gordon Conquers the Universe - Ep 11 (1940) - REPACK.ita.eng.sub.ita\n\n\nGeneral\nComplete name                            : Flash Gordon - Conquers the Universe - Il conquistatore dell'universo 01-12 (1940)Ep 11 - Flash Gordon Conquers the Universe (1940) - REPACK.ita.eng,sub.itaEp 11 - Flash Gordon.avi\nFormat                                   : AVI\nFormat/Info                              : Audio Video Interleave\nFile size                                : 305 MiB\nDuration                                 : 20mn 8s\nOverall bit rate                         : 2 117 Kbps\nWriting application                      : VirtualDubMod 1.5.4.1 (build 2178/release)\nWriting library                          : VirtualDubMod build 2178/release\n\nVideo\nID                                       : 0\nFormat                                   : MPEG-4 Visual\nFormat profile                           : Advanced Simple@L5\nFormat settings, BVOP                    : 1\nFormat settings, QPel                    : No\nFormat settings, GMC                     : No warppoints\nFormat settings, Matrix                  : Custom\nCodec ID                                 : XVID\nCodec ID/Hint                            : XviD\nDuration                                 : 20mn 8s\nBit rate                                 : 1 724 Kbps\nWidth                                    : 608 pixels\nHeight                                   : 464 pixels\nDisplay aspect ratio                     : 4:3\nFrame rate                               : 25.000 fps\nColor space                              : YUV\nChroma subsampling                       : 4:2:0\nBit depth                                : 8 bits\nScan type                                : Progressive\nCompression mode                         : Lossy\nBits/(Pixel*Frame)                       : 0.244\nStream size                              : 248 MiB (81%)\nWriting library                          : XviD 1.2.0.dev47 (UTC 2006-11-01)\n\nAudio #1\nID                                       : 1\nFormat                                   : AC-3\nFormat/Info                              : Audio Coding 3\nMode extension                           : CM (complete main)\nCodec ID                                 : 2000\nDuration                                 : 20mn 8s\nBit rate mode                            : Constant\nBit rate                                 : 192 Kbps\nChannel(s)                               : 2 channels\nChannel positions                        : Front: L R\nSampling rate                            : 48.0 KHz\nBit depth                                : 16 bits\nCompression mode                         : Lossy\nStream size                              : 27.6 MiB (9%)\nAlignment                                : Split accross interleaves\nInterleave, duration                     : 96 ms (2.40 video frames)\nInterleave, preload duration             : 96 ms\nLanguage                                 : Italian\n\nAudio #2\nID                                       : 2\nFormat                                   : AC-3\nFormat/Info                              : Audio Coding 3\nMode extension                           : CM (complete main)\nCodec ID                                 : 2000\nDuration                                 : 20mn 8s\nBit rate mode                            : Constant\nBit rate                                 : 192 Kbps\nChannel(s)                               : 2 channels\nChannel positions                        : Front: L R\nSampling rate                            : 48.0 KHz\nBit depth                                : 16 bits\nCompression mode                         : Lossy\nStream size                              : 27.6 MiB (9%)\nAlignment                                : Split accross interleaves\nInterleave, duration                     : 96 ms (2.40 video frames)\nInterleave, preload duration             : 96 ms\nLanguage                                 : English","torrent":{"xt":"urn:btih:3d5a49f9ae4509e22d34a483a76d00c5c0ffb996","amp;dn":"Flash+Gordon+Conquers+the+Universe+-+Ep+11+%281940%29+-+REPACK.ita.e","amp;tr":["udp%3A%2F%2Ftracker.openbittorrent.com%3A80","udp%3A%2F%2Fopen.demonii.com%3A1337","udp%3A%2F%2Ftracker.coppersurfer.tk%3A6969","udp%3A%2F%2Fexodus.desync.com%3A6969"],"infoHash":"3d5a49f9ae4509e22d34a483a76d00c5c0ffb996","infoHashBuffer":{"type":"Buffer","data":[61,90,73,249,174,69,9,226,45,52,164,131,167,109,0,197,192,255,185,150]},"announce":[],"urlList":[]}}